<svg width="33" height="33" viewBox="0 0 33 33" fill="none" xmlns="http://www.w3.org/2000/svg">
<g clip-path="url(#clip0_1_997)">
<path d="M25.7411 8.35826C24.0415 7.57842 22.2189 7.00384 20.3132 6.67472C20.2785 6.66837 20.2439 6.68425 20.226 6.71597C19.9916 7.1329 19.7319 7.67675 19.5501 8.10425C17.5005 7.79738 15.4613 7.79738 13.4537 8.10425C13.2718 7.66727 13.0028 7.1329 12.7673 6.71597C12.7494 6.68529 12.7147 6.66941 12.6801 6.67472C10.7755 7.00274 8.95286 7.57732 7.25213 8.35826C7.23739 8.36462 7.22479 8.37519 7.2164 8.38894C3.75932 13.5538 2.81224 18.5917 3.27682 23.5671C3.2789 23.5914 3.2926 23.6147 3.31151 23.6295C5.59239 25.3046 7.80187 26.3214 9.97026 26.9955C10.0049 27.0061 10.0417 26.9934 10.0638 26.9648C10.5767 26.2644 11.034 25.5258 11.426 24.749C11.4491 24.7036 11.427 24.6496 11.3797 24.6316C10.6545 24.3565 9.96391 24.021 9.29958 23.6401C9.24703 23.6095 9.24281 23.5343 9.2912 23.4983C9.43099 23.3936 9.57083 23.2846 9.70432 23.1745C9.72849 23.1544 9.76213 23.1502 9.79052 23.1628C14.1547 25.1554 18.8794 25.1554 23.1921 23.1628C23.2205 23.1491 23.2541 23.1534 23.2793 23.1734C23.4129 23.2835 23.5527 23.3935 23.6935 23.4983C23.7418 23.5343 23.7386 23.6094 23.6861 23.6401C23.0218 24.0284 22.3313 24.3564 21.6049 24.6305C21.5577 24.6485 21.5366 24.7035 21.5598 24.749C21.9603 25.5246 22.4175 26.2632 22.9209 26.9637C22.942 26.9934 22.9798 27.0061 23.0145 26.9955C25.1934 26.3214 27.4029 25.3045 29.6838 23.6295C29.7038 23.6147 29.7164 23.5924 29.7184 23.5681C30.2745 17.816 28.7871 12.8194 25.7757 8.38993C25.7684 8.37519 25.7558 8.36462 25.7411 8.35826ZM12.0778 20.5376C10.7639 20.5376 9.68125 19.3313 9.68125 17.8499C9.68125 16.3684 10.7429 15.1622 12.0778 15.1622C13.4232 15.1622 14.4954 16.379 14.4743 17.8499C14.4743 19.3313 13.4127 20.5376 12.0778 20.5376ZM20.9386 20.5376C19.6247 20.5376 18.5421 19.3313 18.5421 17.8499C18.5421 16.3684 19.6037 15.1622 20.9386 15.1622C22.284 15.1622 23.3561 16.379 23.3352 17.8499C23.3352 19.3313 22.2841 20.5376 20.9386 20.5376Z" fill="#DDE6FF"/>
</g>
<defs>
<clipPath id="clip0_1_997">
<rect width="26.6667" height="26.6667" fill="white" transform="translate(3.16666 3.50293)"/>
</clipPath>
</defs>
</svg>
