<svg width="39" height="39" viewBox="0 0 39 39" fill="none" xmlns="http://www.w3.org/2000/svg">
<path d="M19.53 38.8662C9.02 38.8662 0.5 30.3462 0.5 19.8362C0.5 9.32615 9.02 0.806152 19.53 0.806152C30.04 0.806152 38.56 9.32615 38.56 19.8362C38.56 30.3462 30.04 38.8662 19.53 38.8662Z" fill="#211E36"/>
<path d="M19.53 11.2811C22.316 11.2811 22.646 11.2921 23.746 11.3421C24.763 11.3881 25.316 11.5581 25.684 11.7011C26.171 11.8901 26.519 12.1161 26.884 12.4811C27.249 12.8461 27.475 13.1941 27.664 13.6811C27.807 14.0491 27.977 14.6011 28.023 15.6191C28.073 16.7191 28.084 17.0491 28.084 19.8351C28.084 22.6211 28.073 22.9511 28.023 24.0511C27.977 25.0681 27.807 25.6211 27.664 25.9891C27.475 26.4761 27.249 26.8241 26.884 27.1891C26.519 27.5541 26.171 27.7801 25.684 27.9691C25.316 28.1121 24.764 28.2821 23.746 28.3281C22.646 28.3781 22.316 28.3891 19.53 28.3891C16.744 28.3891 16.414 28.3781 15.314 28.3281C14.297 28.2821 13.744 28.1121 13.377 27.9691C12.89 27.7801 12.542 27.5531 12.177 27.1891C11.812 26.8241 11.586 26.4761 11.397 25.9891C11.254 25.6211 11.084 25.0691 11.038 24.0511C10.988 22.9511 10.977 22.6211 10.977 19.8351C10.977 17.0491 10.988 16.7191 11.038 15.6191C11.085 14.6021 11.255 14.0491 11.397 13.6811C11.586 13.1941 11.812 12.8471 12.177 12.4811C12.542 12.1161 12.89 11.8901 13.377 11.7011C13.745 11.5581 14.297 11.3881 15.314 11.3421C16.414 11.2921 16.744 11.2811 19.53 11.2811ZM19.53 9.40112C16.696 9.40112 16.341 9.41312 15.228 9.46412C14.117 9.51512 13.359 9.69112 12.695 9.94912C12.009 10.2161 11.427 10.5721 10.847 11.1531C10.267 11.7341 9.91 12.3151 9.644 13.0011C9.386 13.6651 9.21 14.4231 9.159 15.5341C9.108 16.6471 9.09601 17.0021 9.09601 19.8361C9.09601 22.6701 9.108 23.0251 9.159 24.1381C9.209 25.2491 9.386 26.0071 9.644 26.6711C9.91 27.3571 10.267 27.9391 10.847 28.5191C11.427 29.0991 12.009 29.4561 12.695 29.7231C13.359 29.9811 14.117 30.1571 15.228 30.2081C16.341 30.2591 16.696 30.2711 19.53 30.2711C22.364 30.2711 22.719 30.2591 23.832 30.2081C24.943 30.1571 25.701 29.9811 26.365 29.7231C27.051 29.4561 27.633 29.1001 28.213 28.5191C28.793 27.9381 29.15 27.3571 29.417 26.6711C29.675 26.0071 29.851 25.2491 29.902 24.1381C29.953 23.0251 29.965 22.6701 29.965 19.8361C29.965 17.0021 29.953 16.6471 29.902 15.5341C29.851 14.4231 29.675 13.6651 29.417 13.0011C29.15 12.3151 28.794 11.7331 28.213 11.1531C27.632 10.5731 27.051 10.2161 26.365 9.94912C25.701 9.69112 24.943 9.51512 23.832 9.46412C22.719 9.41312 22.364 9.40112 19.53 9.40112Z" fill="#DDE6FF"/>
<path d="M19.53 14.4771C16.571 14.4771 14.172 16.8761 14.172 19.8351C14.172 22.7941 16.571 25.1931 19.53 25.1931C22.489 25.1931 24.888 22.7941 24.888 19.8351C24.888 16.8761 22.489 14.4771 19.53 14.4771ZM19.53 23.3131C17.609 23.3131 16.052 21.7561 16.052 19.8351C16.052 17.9141 17.609 16.3571 19.53 16.3571C21.451 16.3571 23.008 17.9141 23.008 19.8351C23.008 21.7561 21.451 23.3131 19.53 23.3131Z" fill="#DDE6FF"/>
<path d="M26.352 14.2662C26.352 14.9572 25.791 15.5182 25.1 15.5182C24.409 15.5182 23.848 14.9572 23.848 14.2662C23.848 13.5752 24.409 13.0142 25.1 13.0142C25.791 13.0142 26.352 13.5752 26.352 14.2662Z" fill="#DDE6FF"/>
</svg>
