<svg width="25" height="25" viewBox="0 0 25 25" fill="none" xmlns="http://www.w3.org/2000/svg">
<g clip-path="url(#clip0_1_1009)">
<path d="M23.1357 6.85376C21.766 6.85376 20.5023 6.40001 19.4874 5.63454C18.3235 4.75704 17.4873 3.46985 17.192 1.98626C17.1188 1.6197 17.0795 1.24142 17.0757 0.85376H13.1631V11.545L13.1584 17.4011C13.1584 18.9667 12.1388 20.2942 10.7256 20.7611C10.3154 20.8966 9.87244 20.9608 9.41119 20.9355C8.82244 20.9031 8.27072 20.7255 7.79119 20.4386C6.77072 19.8283 6.07884 18.7211 6.06009 17.4545C6.03056 15.475 7.63088 13.8611 9.609 13.8611C9.99947 13.8611 10.3745 13.9249 10.7256 14.0406V11.1184V10.068C10.3553 10.0131 9.97837 9.98454 9.59728 9.98454C7.43213 9.98454 5.40713 10.8845 3.95963 12.5059C2.86556 13.7313 2.20931 15.2945 2.10806 16.9338C1.97541 19.0872 2.76338 21.1342 4.2915 22.6445C4.51603 22.8663 4.75181 23.072 4.99838 23.2619C6.30853 24.2702 7.91025 24.8167 9.59728 24.8167C9.97837 24.8167 10.3553 24.7886 10.7256 24.7338C12.3015 24.5003 13.7556 23.7789 14.9031 22.6445C16.3131 21.2509 17.0921 19.4008 17.1006 17.4316L17.0804 8.68657C17.7531 9.20548 18.4885 9.63485 19.2779 9.96813C20.5056 10.4861 21.8073 10.7486 23.147 10.7481V7.90704V6.85282C23.1479 6.85376 23.1367 6.85376 23.1357 6.85376Z" fill="#DDE6FF"/>
</g>
<defs>
<clipPath id="clip0_1_1009">
<rect width="24" height="24" fill="white" transform="translate(0.621002 0.836182)"/>
</clipPath>
</defs>
</svg>
