<svg width="25" height="25" viewBox="0 0 25 25" fill="none" xmlns="http://www.w3.org/2000/svg">
<path d="M12.6213 0.836182H12.6207C5.99344 0.836182 0.621002 6.20862 0.621002 12.8359V12.8365C0.621002 19.4637 5.99344 24.8362 12.6207 24.8362H12.6213C19.2486 24.8362 24.621 19.4637 24.621 12.8365V12.8359C24.621 6.20862 19.2486 0.836182 12.6213 0.836182Z" fill="#211E36"/>
<g clip-path="url(#clip0_1_1013)">
<path d="M14.2862 11.3877L21.1771 3.37769H19.5441L13.5608 10.3327L8.78195 3.37769H3.2701L10.4967 13.8949L3.2701 22.2947H4.9031L11.2216 14.9499L16.2685 22.2947H21.7803L14.2858 11.3877H14.2862ZM12.0496 13.9876L11.3174 12.9403L5.49149 4.60698H7.99969L12.7012 11.3322L13.4335 12.3795L19.5449 21.1213H17.0367L12.0496 13.988V13.9876Z" fill="#DDE6FF"/>
</g>
<defs>
<clipPath id="clip0_1_1013">
<rect width="18.917" height="18.917" fill="white" transform="translate(3.06697 3.37769)"/>
</clipPath>
</defs>
</svg>
