<svg width="31" height="22" viewBox="0 0 31 22" fill="none" xmlns="http://www.w3.org/2000/svg">
<path d="M30.185 3.45673C29.835 2.13773 28.803 1.09873 27.492 0.745728C25.117 0.104728 15.591 0.104736 15.591 0.104736C15.591 0.104736 6.06599 0.104728 3.68999 0.745728C2.37899 1.09873 1.34699 2.13673 0.996992 3.45673C0.360992 5.84773 0.360992 10.8357 0.360992 10.8357C0.360992 10.8357 0.360992 15.8237 0.996992 18.2157C1.34699 19.5347 2.37999 20.5737 3.68999 20.9257C6.06599 21.5667 15.591 21.5667 15.591 21.5667C15.591 21.5667 25.116 21.5667 27.492 20.9257C28.803 20.5727 29.835 19.5347 30.185 18.2157C30.821 15.8247 30.821 10.8357 30.821 10.8357C30.821 10.8357 30.821 5.84773 30.185 3.45673Z" fill="#DDE6FF"/>
<path d="M12.475 15.3656V6.30664L20.437 10.8366L12.475 15.3656Z" fill="#211E36"/>
</svg>
